<?xml version="1.0" encoding="iso-8859-1"?>
<!-- Generator: Adobe Illustrator 19.0.0, SVG Export Plug-In . SVG Version: 6.00 Build 0)  -->
<svg xmlns="http://www.w3.org/2000/svg" xmlns:xlink="http://www.w3.org/1999/xlink" version="1.1" id="Layer_1" x="0px" y="0px" viewBox="0 0 512.002 512.002" style="enable-background:new 0 0 512.002 512.002;" xml:space="preserve">
<path style="fill:#FFCA54;" d="M407.741,229.103c-60.784-106.688-6.151-10.796-75.871-133.167l-75.871,133.167L180.129,95.936  l-75.871,133.167L28.387,95.936v329.775h455.224V95.936L407.741,229.103z"/>
<path style="fill:#F99830;" d="M135.32,174.583l-31.063,54.52L28.387,95.936v329.775h209.959  C163.064,366.698,122.851,272.317,135.32,174.583z"/>
<g>
	<path style="fill:#57BAE5;" d="M180.129,256.998l-21.728,21.727c-5.233,5.234-5.233,13.719,0,18.953l21.728,21.727l21.727-21.727   c5.234-5.234,5.234-13.719,0-18.953L180.129,256.998z"/>
	<path style="fill:#57BAE5;" d="M331.871,256.998l-21.728,21.727c-5.233,5.234-5.233,13.719,0,18.953l21.728,21.727l21.727-21.727   c5.234-5.234,5.234-13.719,0-18.953L331.871,256.998z"/>
</g>
<g>
	<path style="fill:#45A7C9;" d="M483.611,256.998l-21.728,21.727c-5.234,5.234-5.234,13.719,0,18.953l21.728,21.727V256.998z"/>
	<path style="fill:#45A7C9;" d="M28.387,256.998l21.728,21.727c5.233,5.234,5.233,13.719,0,18.953l-21.728,21.727V256.998z"/>
</g>
<path style="fill:#7C5437;" d="M141.183,469.52h329.847c13.022,0,23.581-10.556,23.581-23.58c0-13.022-10.559-23.579-23.581-23.579  H40.969c-13.022,0-23.58,10.557-23.58,23.579c0,13.024,10.558,23.58,23.58,23.58h71.921"/>
<path style="fill:#603D26;" d="M471.029,448.174c-6.585,0-417.579,0-430.061,0c-9.176,0-17.109-5.254-21.007-12.907  c-7.992,15.687,3.458,34.253,21.007,34.253c12.481,0,423.475,0,430.061,0c17.512,0,29.018-18.522,21.008-34.253  C488.14,442.92,480.206,448.174,471.029,448.174z"/>
<rect x="28.387" y="375.125" style="fill:#FC883A;" width="455.223" height="50.587"/>
<path style="fill:#EF7A2B;" d="M188.629,375.128H28.387v50.584h209.959C219.673,411.073,202.96,394.052,188.629,375.128z"/>
<g>
	<circle style="fill:#FC883A;" cx="483.613" cy="70.901" r="28.389"/>
	<circle style="fill:#FC883A;" cx="331.872" cy="70.901" r="28.389"/>
	<circle style="fill:#FC883A;" cx="180.131" cy="70.901" r="28.389"/>
	<circle style="fill:#FC883A;" cx="28.388" cy="70.901" r="28.388"/>
</g>
<g>
	<path style="fill:#EF7A2B;" d="M499.319,47.251c-18.726-12.464-44.096,0.928-44.096,23.647c0,22.688,25.342,36.129,44.096,23.646   C482.42,83.293,482.419,58.5,499.319,47.251z"/>
	<path style="fill:#EF7A2B;" d="M347.578,47.251c-4.499-2.994-9.899-4.743-15.708-4.743c-15.679,0-28.388,12.711-28.388,28.39   c0,22.688,25.342,36.129,44.096,23.646C330.681,83.295,330.678,58.5,347.578,47.251z"/>
	<path style="fill:#EF7A2B;" d="M195.838,47.251c-18.728-12.463-44.098,0.929-44.098,23.647c0,22.687,25.341,36.129,44.098,23.646   C178.939,83.295,178.934,58.5,195.838,47.251z"/>
	<path style="fill:#EF7A2B;" d="M44.095,47.251C25.37,34.787,0,48.18,0,70.898c0,22.687,25.341,36.129,44.095,23.646   C27.2,83.293,27.199,58.5,44.095,47.251z"/>
</g>
<g>
	<path style="fill:#45A7C9;" d="M180.129,256.998l-21.728,21.727c-5.233,5.234-5.233,13.719,0,18.953l21.728,21.727L180.129,256.998   L180.129,256.998z"/>
	<path style="fill:#45A7C9;" d="M331.871,256.998l-21.728,21.727c-5.233,5.234-5.233,13.719,0,18.953l21.728,21.727V256.998z"/>
</g>
<g>
</g>
<g>
</g>
<g>
</g>
<g>
</g>
<g>
</g>
<g>
</g>
<g>
</g>
<g>
</g>
<g>
</g>
<g>
</g>
<g>
</g>
<g>
</g>
<g>
</g>
<g>
</g>
<g>
</g>
</svg>
